<svg width="84" height="87" viewBox="0 0 84 87" fill="none" xmlns="http://www.w3.org/2000/svg">
<g filter="url(#filter0_d_71_187)">
<path d="M30.1405 56.0367C27.8067 54.771 25.3021 54.3511 23.2508 52.7543C22.7662 52.3771 22.3039 52.4682 21.845 52.7972C18.9791 54.8521 15.3672 55.1638 12.6406 58C11.5496 55.6345 12.0934 53.492 12.5117 51.4751C13.0651 48.8067 14.4684 46.6211 16.4904 45.0056C17.3584 44.3121 17.9185 43.5647 17.9169 42.2561C17.9047 32.5134 21.7266 24.5863 27.3974 17.5117C28.4881 16.1511 30.4106 15.3359 30.3771 13.1471C30.334 10.3313 29.3747 7.79284 27.7404 5.6466C26.8204 4.43848 25.7242 3.39647 24.5126 2.0657C26.8972 0.688627 29.2073 0.868262 31.457 1.37226C34.9979 2.16549 38.1309 3.96492 40.588 6.9657C41.5291 8.11508 42.418 8.34409 43.7454 7.89032C49.035 6.08198 54.4813 5.47945 59.9923 5.74083C64.1567 5.93835 67.8898 7.42783 70.8674 10.8354C71.5766 11.647 72.1814 12.5481 72.5896 13.5861C73.6596 16.3059 72.5905 18.2178 69.9286 18.215C67.3992 18.2125 64.8854 18.3084 62.4023 18.8767C55.8491 20.3764 53.8766 22.6649 52.6158 29.9722C51.8735 34.2748 49.9454 37.8378 46.7231 40.4016C44.5709 42.1141 42.1301 42.79 39.2833 42.5097C39.6331 40.1417 40.8342 38.2343 40.5162 35.772C35.6448 37.7866 31.3421 40.6031 26.8611 43.8181C28.9249 45.6293 30.77 47.2857 31.8269 49.7537C32.8952 52.248 33.189 54.795 32.7608 57.5193C31.5783 57.6627 31.1703 56.3485 30.1405 56.0367ZM56.7159 12.2525C54.4336 12.1616 52.1783 12.3133 50.0648 13.3893C49.328 13.7643 48.4763 14.198 48.5443 15.2997C48.606 16.2978 49.4617 16.4807 50.1416 16.8524C54.1519 19.045 57.1648 16.0674 60.6041 14.5515C59.7185 12.9268 58.4655 12.441 56.7159 12.2525ZM33.3983 35.0269C30.8165 33.6118 28.3725 34.0375 26.1924 35.958C24.5147 37.4358 23.5027 39.3653 23.9935 42.1686C27.0261 39.8657 30.0592 37.9439 33.1181 36.071C33.3898 35.9046 33.6315 35.6584 33.3983 35.0269Z" fill="#F7F5F5"/>
</g>
<g filter="url(#filter1_d_71_187)">
<path d="M53.9336 32.465C58.5357 29.823 63.2389 27.7124 66.9771 23.7817C68.1272 22.5723 69.2091 21.318 70.0915 19.8564C70.6515 18.9288 71.2877 18.6657 72.1607 19.6644C71.4236 22.8873 69.3129 25.1096 67.0332 26.8606C64.0917 29.1198 61.5413 31.346 60.4456 35.4591C59.6875 38.3049 57.3781 39.9446 54.7129 40.7438C53.3683 41.1469 52.7912 40.7842 52.8942 39.1921C53.0027 37.5173 53.0628 35.8383 53.1267 34.1604C53.1515 33.5097 53.1964 32.8916 53.9336 32.465Z" fill="#F7F5F5"/>
</g>
<g filter="url(#filter2_d_71_187)">
<path d="M9 77.2C4.82667 77.2 2.74 75.0067 2.74 70.62C2.74 68.26 3.26667 66.5533 4.32 65.5C5.37333 64.4467 6.93333 63.92 9 63.92C11.0667 63.92 12.6267 64.4467 13.68 65.5C14.7333 66.5533 15.26 68.26 15.26 70.62C15.26 75.0067 13.1733 77.2 9 77.2ZM9 74.9C10.2133 74.9 11.1 74.5533 11.66 73.86C12.2333 73.1533 12.52 72.0733 12.52 70.62C12.52 69.0067 12.2333 67.8733 11.66 67.22C11.1 66.5533 10.2133 66.22 9 66.22C7.78667 66.22 6.89333 66.5533 6.32 67.22C5.76 67.8733 5.48 69.0067 5.48 70.62C5.48 72.0733 5.76 73.1533 6.32 73.86C6.89333 74.5533 7.78667 74.9 9 74.9ZM17.1439 77V67.52H19.6439L19.7639 68.5C20.1906 68.2333 20.7172 67.9933 21.3439 67.78C21.9839 67.5533 22.6106 67.4 23.2239 67.32V69.36C22.8639 69.4133 22.4706 69.4933 22.0439 69.6C21.6172 69.7067 21.2106 69.8267 20.8239 69.96C20.4372 70.0933 20.1106 70.2333 19.8439 70.38V77H17.1439ZM29.0542 77.2C27.3609 77.2 26.0609 76.78 25.1542 75.94C24.2609 75.1 23.8142 73.8733 23.8142 72.26C23.8142 70.5933 24.2942 69.3533 25.2542 68.54C26.2276 67.7267 27.5209 67.32 29.1342 67.32C29.8009 67.32 30.3742 67.3667 30.8542 67.46C31.3342 67.5533 31.8009 67.7067 32.2542 67.92V69.86C31.9209 69.7 31.5342 69.5733 31.0942 69.48C30.6542 69.3867 30.1809 69.34 29.6742 69.34C28.6609 69.34 27.8876 69.5533 27.3542 69.98C26.8209 70.3933 26.5542 71.1533 26.5542 72.26C26.5542 73.2733 26.7942 74.0133 27.2742 74.48C27.7676 74.9467 28.5609 75.18 29.6542 75.18C30.1209 75.18 30.5742 75.1333 31.0142 75.04C31.4676 74.9467 31.8876 74.8067 32.2742 74.62V76.62C31.3809 77.0067 30.3076 77.2 29.0542 77.2ZM36.9598 77.2C36.3598 77.2 35.7998 77.0933 35.2798 76.88C34.7732 76.6533 34.3598 76.3267 34.0398 75.9C33.7332 75.46 33.5798 74.9133 33.5798 74.26C33.5798 73.3267 33.9065 72.58 34.5598 72.02C35.2265 71.46 36.2065 71.18 37.4998 71.18H40.2998V70.92C40.2998 70.3333 40.1332 69.92 39.7998 69.68C39.4798 69.44 38.8265 69.32 37.8398 69.32C36.7598 69.32 35.7198 69.4867 34.7198 69.82V67.92C35.1598 67.7467 35.6932 67.6067 36.3198 67.5C36.9598 67.38 37.6532 67.32 38.3998 67.32C39.8265 67.32 40.9265 67.6133 41.6998 68.2C42.4865 68.7733 42.8798 69.7 42.8798 70.98V77H40.5398L40.3998 76.14C40.0265 76.4733 39.5665 76.7333 39.0198 76.92C38.4732 77.1067 37.7865 77.2 36.9598 77.2ZM37.6998 75.42C38.2998 75.42 38.8198 75.32 39.2598 75.12C39.6998 74.92 40.0465 74.6667 40.2998 74.36V72.86H37.5598C36.5065 72.86 35.9798 73.2933 35.9798 74.16C35.9798 75 36.5532 75.42 37.6998 75.42ZM45.0541 77V64.12H47.3941L53.4941 72.7V64.12H56.1941V77H53.8541L47.7541 68.42V77H45.0541ZM63.412 77.2C61.772 77.2 60.472 76.7933 59.512 75.98C58.552 75.1533 58.072 73.9067 58.072 72.24C58.072 70.7333 58.472 69.54 59.272 68.66C60.0854 67.7667 61.292 67.32 62.892 67.32C64.3587 67.32 65.4787 67.7067 66.252 68.48C67.0387 69.24 67.432 70.24 67.432 71.48V73.2H60.572C60.7187 73.96 61.0654 74.48 61.612 74.76C62.172 75.04 62.9587 75.18 63.972 75.18C64.4787 75.18 64.992 75.1333 65.512 75.04C66.0454 74.9467 66.4987 74.8267 66.872 74.68V76.6C66.432 76.8 65.9187 76.9467 65.332 77.04C64.7454 77.1467 64.1054 77.2 63.412 77.2ZM60.572 71.54H65.072V71.02C65.072 70.4733 64.912 70.0467 64.592 69.74C64.272 69.42 63.732 69.26 62.972 69.26C62.0787 69.26 61.452 69.44 61.092 69.8C60.7454 70.16 60.572 70.74 60.572 71.54ZM73.0719 77.2C71.9785 77.2 71.1652 76.9133 70.6319 76.34C70.1119 75.7667 69.8519 74.9867 69.8519 74V69.6H68.5119V67.52H69.8519V65.48L72.5519 64.68V67.52H74.9519L74.7919 69.6H72.5519V73.82C72.5519 74.34 72.6719 74.7 72.9119 74.9C73.1519 75.0867 73.5252 75.18 74.0319 75.18C74.4052 75.18 74.7919 75.1133 75.1919 74.98V76.84C74.8985 76.96 74.5785 77.0467 74.2319 77.1C73.8852 77.1667 73.4985 77.2 73.0719 77.2Z" fill="white"/>
</g>
<defs>
<filter id="filter0_d_71_187" x="10" y="0" width="71" height="67" filterUnits="userSpaceOnUse" color-interpolation-filters="sRGB">
<feFlood flood-opacity="0" result="BackgroundImageFix"/>
<feColorMatrix in="SourceAlpha" type="matrix" values="0 0 0 0 0 0 0 0 0 0 0 0 0 0 0 0 0 0 127 0" result="hardAlpha"/>
<feOffset dx="3" dy="4"/>
<feGaussianBlur stdDeviation="2.5"/>
<feComposite in2="hardAlpha" operator="out"/>
<feColorMatrix type="matrix" values="0 0 0 0 0 0 0 0 0 0 0 0 0 0 0 0 0 0 0.25 0"/>
<feBlend mode="normal" in2="BackgroundImageFix" result="effect1_dropShadow_71_187"/>
<feBlend mode="normal" in="SourceGraphic" in2="effect1_dropShadow_71_187" result="shape"/>
</filter>
<filter id="filter1_d_71_187" x="50.8826" y="18.0281" width="29.2781" height="31.8673" filterUnits="userSpaceOnUse" color-interpolation-filters="sRGB">
<feFlood flood-opacity="0" result="BackgroundImageFix"/>
<feColorMatrix in="SourceAlpha" type="matrix" values="0 0 0 0 0 0 0 0 0 0 0 0 0 0 0 0 0 0 127 0" result="hardAlpha"/>
<feOffset dx="3" dy="4"/>
<feGaussianBlur stdDeviation="2.5"/>
<feComposite in2="hardAlpha" operator="out"/>
<feColorMatrix type="matrix" values="0 0 0 0 0 0 0 0 0 0 0 0 0 0 0 0 0 0 0.25 0"/>
<feBlend mode="normal" in2="BackgroundImageFix" result="effect1_dropShadow_71_187"/>
<feBlend mode="normal" in="SourceGraphic" in2="effect1_dropShadow_71_187" result="shape"/>
</filter>
<filter id="filter2_d_71_187" x="0.73999" y="62.92" width="82.4519" height="23.2799" filterUnits="userSpaceOnUse" color-interpolation-filters="sRGB">
<feFlood flood-opacity="0" result="BackgroundImageFix"/>
<feColorMatrix in="SourceAlpha" type="matrix" values="0 0 0 0 0 0 0 0 0 0 0 0 0 0 0 0 0 0 127 0" result="hardAlpha"/>
<feOffset dx="3" dy="4"/>
<feGaussianBlur stdDeviation="2.5"/>
<feComposite in2="hardAlpha" operator="out"/>
<feColorMatrix type="matrix" values="0 0 0 0 0 0 0 0 0 0 0 0 0 0 0 0 0 0 0.25 0"/>
<feBlend mode="normal" in2="BackgroundImageFix" result="effect1_dropShadow_71_187"/>
<feBlend mode="normal" in="SourceGraphic" in2="effect1_dropShadow_71_187" result="shape"/>
</filter>
</defs>
</svg>
