<svg width="27" height="27" viewBox="0 0 27 27" fill="none" xmlns="http://www.w3.org/2000/svg">
<circle cx="13.5" cy="13.5" r="12.5" stroke="#12486B" stroke-width="2"/>
<path d="M10.1206 21.8491C9.39747 21.4294 8.62149 21.2902 7.98591 20.7607C7.83576 20.6357 7.69251 20.6659 7.55035 20.7749C6.66236 21.4563 5.54327 21.5597 4.69849 22.5001C4.36045 21.7157 4.52895 21.0053 4.65855 20.3366C4.83002 19.4518 5.26479 18.7271 5.89128 18.1914C6.16021 17.9615 6.33377 17.7137 6.33326 17.2798C6.32948 14.0493 7.51364 11.4208 9.27068 9.07504C9.6086 8.6239 10.2043 8.35359 10.1939 7.62783C10.1805 6.69415 9.88332 5.85246 9.37693 5.14081C9.09188 4.74023 8.75225 4.39472 8.37687 3.95346C9.11569 3.49685 9.83143 3.55642 10.5285 3.72353C11.6256 3.98655 12.5963 4.5832 13.3576 5.5782C13.6492 5.95931 13.9246 6.03524 14.3359 5.88478C15.9748 5.28518 17.6622 5.08539 19.3698 5.17206C20.66 5.23755 21.8167 5.73143 22.7392 6.86131C22.959 7.13042 23.1464 7.42921 23.2729 7.77337C23.6044 8.67523 23.2731 9.30915 22.4484 9.30824C21.6647 9.30738 20.8858 9.33921 20.1164 9.52764C18.086 10.0249 17.4749 10.7837 17.0843 13.2067C16.8542 14.6333 16.2568 15.8147 15.2585 16.6649C14.5916 17.2327 13.8354 17.4568 12.9533 17.3638C13.0617 16.5786 13.4339 15.9462 13.3354 15.1298C11.826 15.7978 10.4929 16.7316 9.1045 17.7977C9.74393 18.3982 10.3156 18.9475 10.6431 19.7658C10.9741 20.5929 11.0651 21.4374 10.9325 22.3407C10.5661 22.3882 10.4396 21.9525 10.1206 21.8491ZM18.3546 7.33119C17.6475 7.30104 16.9487 7.35135 16.2938 7.70812C16.0656 7.83248 15.8017 7.97628 15.8228 8.34158C15.8419 8.67254 16.107 8.73316 16.3176 8.85642C17.5602 9.58345 18.4937 8.59614 19.5593 8.09349C19.2849 7.55476 18.8967 7.39369 18.3546 7.33119ZM11.13 14.8827C10.33 14.4135 9.57278 14.5547 8.89732 15.1914C8.37752 15.6814 8.06395 16.3212 8.21603 17.2507C9.15564 16.4872 10.0954 15.8499 11.0432 15.2289C11.1273 15.1737 11.2022 15.0921 11.13 14.8827Z" fill="#12486B"/>
<path d="M17.4435 14.3241C18.9474 13.4542 20.4844 12.7593 21.706 11.4651C22.0819 11.0669 22.4354 10.6539 22.7238 10.1726C22.9068 9.86722 23.1147 9.78058 23.4 10.1094C23.1591 11.1706 22.4694 11.9023 21.7244 12.4788C20.7631 13.2227 19.9296 13.9557 19.5716 15.31C19.3238 16.247 18.5691 16.7869 17.6981 17.05C17.2587 17.1827 17.0701 17.0633 17.1038 16.5391C17.1393 15.9876 17.1589 15.4348 17.1798 14.8824C17.1879 14.6681 17.2026 14.4646 17.4435 14.3241Z" fill="#12486B"/>
</svg>
